<svg width="288" height="46" viewBox="0 0 288 46" fill="none" xmlns="http://www.w3.org/2000/svg">
<rect x="42" y="1" width="18.3273" height="41" transform="rotate(90 42 1)" stroke="white" stroke-width="2"/>
<path d="M42 44.3453L24.4541 44.3453L24.4541 26.0182L42 26.0182L42 44.3453Z" stroke="white" stroke-width="2"/>
<rect x="18.5454" y="26.0182" width="18.3273" height="17.5455" transform="rotate(90 18.5454 26.0182)" stroke="white" stroke-width="2"/>
<rect x="33.4" y="11.1636" width="24.5818" height="23.8" transform="rotate(90 33.4 11.1636)" stroke="white" stroke-width="2"/>
<ellipse cx="9.77275" cy="34.7909" rx="4.3" ry="4.3" transform="rotate(90 9.77275 34.7909)" fill="white"/>
<ellipse cx="9.77275" cy="9.77272" rx="4.3" ry="4.3" transform="rotate(90 9.77275 9.77272)" fill="#D9675D"/>
<ellipse cx="33.2272" cy="34.7909" rx="4.3" ry="4.3" transform="rotate(90 33.2272 34.7909)" fill="#E2B23F"/>
<ellipse cx="33.2272" cy="9.77272" rx="4.3" ry="4.3" transform="rotate(90 33.2272 9.77272)" fill="#30B1B9"/>
<path d="M86.5666 33.7241L80.7785 25.4384C85.7738 24.6058 88.9453 22.0686 88.9453 17.5491C88.9453 11.8799 83.5933 9.38232 76.4969 9.38232H66.2686V9.65983C66.2686 9.65983 67.4976 9.93734 67.4976 13.1486V33.3276C67.4976 36.5785 66.2686 36.8164 66.2686 36.8164V37.1335H73.8011V36.8164C73.8011 36.8164 72.5721 36.5785 72.5721 33.3276V25.7555H75.9419L81.8489 34.1602C83.2365 36.4596 82.6418 36.8164 82.6418 36.8164V37.1335H90.2139V36.8164C90.2139 36.8164 89.1832 36.9353 86.5666 33.7241ZM75.0697 24.4869H72.5721V10.6509H76.4969C80.5803 10.6509 83.9105 13.6243 83.9105 17.5491C83.9105 21.5136 80.4217 24.4869 76.4969 24.4869H75.0697ZM98.1602 33.3276V16.9148H97.843L91.8567 18.1834V18.4609C91.8567 18.4609 93.0857 18.7384 93.0857 21.9893V33.3276C93.0857 36.5785 91.8567 36.8164 91.8567 36.8164V37.0939H99.3892V36.8164C99.3892 36.8164 98.1602 36.5785 98.1602 33.3276ZM95.6229 15.6858C97.288 15.6858 98.6359 14.3775 98.6359 12.7521C98.6359 11.1267 97.288 9.81841 95.6229 9.81841C93.9579 9.81841 92.61 11.1267 92.61 12.7521C92.61 14.3775 93.9579 15.6858 95.6229 15.6858ZM133.169 33.3276V22.1479C133.169 22.0686 133.169 22.0289 133.169 21.9893C133.169 19.016 130.632 16.5976 126.548 16.5976C123.536 16.5976 121.078 17.9059 120.086 19.8881C119.175 17.9455 116.994 16.5976 113.942 16.5976C111.325 16.5976 109.105 17.5887 107.955 19.1349V16.9148H107.638L101.652 18.1834V18.4609C101.652 18.4609 102.881 18.7384 102.881 21.9893V33.3276C102.881 36.5388 101.652 36.8164 101.652 36.8164V37.0939H109.184V36.8164C109.184 36.8164 107.955 36.5388 107.955 33.3276V22.1479C107.955 20.0864 109.66 18.6591 111.721 18.6591C113.942 18.6591 115.488 19.6106 115.488 22.1479V33.3276C115.488 36.5388 114.259 36.8164 114.259 36.8164V37.0939H121.831V36.8164C121.831 36.8164 120.562 36.5388 120.562 33.3276V22.1479C120.562 22.1082 120.562 22.1082 120.562 22.0686C120.602 20.0467 122.307 18.6591 124.328 18.6591C126.548 18.6591 128.134 19.6106 128.134 22.1479V33.3276C128.134 36.5388 126.866 36.8164 126.866 36.8164V37.0939H134.438V36.8164C134.438 36.8164 133.169 36.5388 133.169 33.3276ZM160.432 9.34268H150.204V9.62019C150.204 9.62019 151.433 9.8977 151.433 13.1486V33.3276C151.433 36.5388 150.204 36.8164 150.204 36.8164V37.0939H160.432C167.845 37.0939 172.88 32.8519 172.88 23.2183C172.88 13.6243 167.528 9.34268 160.432 9.34268ZM160.432 35.8252H156.507V10.6113H160.432C165.308 10.6113 167.845 16.558 167.845 23.2183C167.845 29.9182 165.308 35.8252 160.432 35.8252ZM190.197 18.0645C189.879 17.8663 188.175 16.5976 185.201 16.5976C181.673 16.5976 178.62 18.5402 176.757 21.2757C174.973 23.9319 175.132 27.1827 175.132 27.1827C175.132 27.381 175.132 27.5792 175.132 27.817C175.449 33.1691 179.849 37.411 185.201 37.411C188.254 37.411 190.989 36.0235 192.853 33.843L191.624 33.1294C189.681 35.7063 187.065 36.182 185.717 36.182C183.616 36.182 182.109 34.398 181.356 31.6626C181.078 30.5922 180.88 29.4028 180.801 28.1342C180.801 27.8963 180.801 27.3017 180.761 27.0242H194.002C194.042 26.033 194.002 20.6414 190.197 18.0645ZM180.84 25.7555C181.078 21.2757 182.942 17.787 185.201 17.787C187.858 17.787 188.968 21.355 188.968 25.7555H180.84ZM211.696 28.9271C209.357 26.2313 204.441 23.8129 203.172 22.9408C200.199 20.8 201.824 18.0248 204.52 17.8663C204.798 17.8663 205.075 17.9059 205.432 17.9455C206.225 18.0645 207.652 18.6591 208.643 21.3153C208.722 21.5136 209.317 23.139 211.18 22.3857C212.013 22.0686 212.171 21.3153 212.171 21.3153C212.409 20.4828 211.26 19.4917 211.141 19.4124C209.238 17.668 206.74 16.6373 203.965 16.6373C197.662 16.6373 194.173 21.1171 197.424 24.8041C198.93 26.5484 204.758 29.7993 205.908 30.7904C208.722 33.2087 207.454 36.0235 204.718 36.182C204.48 36.182 204.163 36.182 203.846 36.1028C202.895 35.9045 201.031 35.3495 199.842 32.614C199.723 32.3762 199.168 30.8697 197.305 31.5436C196.353 31.8608 196.274 32.614 196.274 32.614C196.115 33.843 197.662 34.8738 197.86 35.0324C199.763 36.5785 202.776 37.411 205.273 37.411C211.577 37.411 214.947 32.5744 211.696 28.9271ZM221.469 33.3276V16.9148H221.152L215.165 18.1834V18.4609C215.165 18.4609 216.394 18.7384 216.394 21.9893V33.3276C216.394 36.5785 215.165 36.8164 215.165 36.8164V37.0939H222.698V36.8164C222.698 36.8164 221.469 36.5785 221.469 33.3276ZM218.931 15.6858C220.597 15.6858 221.944 14.3775 221.944 12.7521C221.944 11.1267 220.597 9.81841 218.931 9.81841C217.266 9.81841 215.918 11.1267 215.918 12.7521C215.918 14.3775 217.266 15.6858 218.931 15.6858ZM244.109 37.0939C243.514 34.5963 241.096 33.5655 239.629 33.288C236.378 32.6933 231.819 33.1294 230.55 33.1294C229.321 33.1691 228.687 33.0105 228.37 32.733C227.458 31.9401 228.726 30.3543 229.163 29.8786C230.59 30.6715 232.294 31.1075 234.197 31.1075C239.074 31.1075 242.999 27.936 242.999 24.0112C242.999 22.2668 242.206 20.6414 240.897 19.4124C241.492 19.1349 242.206 19.016 242.919 19.452C243.078 19.571 243.593 19.7692 243.752 18.9367C243.95 17.9852 243.236 17.787 242.919 17.787C242.681 17.7473 241.294 17.7473 239.867 18.5799C238.32 17.5491 236.338 16.9148 234.197 16.9148C229.321 16.9148 225.357 20.126 225.357 24.0112C225.357 26.033 226.387 27.8567 228.092 29.165C224.247 32.059 224.841 34.9927 225.991 36.0235C225.396 36.4596 222.225 40.1069 225.793 43.1198C227.497 44.5074 230.59 44.9435 233.722 44.9831C236.18 44.9831 240.065 44.3488 242.245 42.4855C243.197 41.6926 244.822 39.9086 244.109 37.0939ZM234.197 18.0248C236.299 18.0248 238.043 20.7207 238.043 24.0112C238.043 27.3413 236.299 29.9975 234.197 29.9975C232.057 29.9975 230.312 27.3413 230.312 24.0112C230.312 20.7207 232.057 18.0248 234.197 18.0248ZM241.016 39.9483C237.607 41.6926 229.044 41.8909 227.061 39.9483C227.061 39.9483 225.436 38.4418 227.101 36.7767C229.044 37.7282 235.347 36.9353 238.915 36.9749C239.47 37.0146 242.007 36.9353 242.285 38.3229C242.404 38.9175 241.849 39.4725 241.016 39.9483ZM265.125 33.3276V22.1479C265.125 22.0686 265.125 22.0289 265.125 21.9893C265.125 19.016 262.588 16.5976 258.505 16.5976C255.888 16.5976 253.668 17.5887 252.518 19.1349V16.9148H252.201L246.215 18.1834V18.4609C246.215 18.4609 247.444 18.7384 247.444 21.9893V33.3276C247.444 36.5388 246.215 36.8164 246.215 36.8164V37.0939H253.747V36.8164C253.747 36.8164 252.518 36.5388 252.518 33.3276V22.1479C252.518 20.0864 254.223 18.6591 256.285 18.6591C258.505 18.6591 260.051 19.6106 260.051 22.1479V33.3276C260.051 36.5388 258.822 36.8164 258.822 36.8164V37.0939H266.394V36.8164C266.394 36.8164 265.125 36.5388 265.125 33.3276ZM284.093 28.9271C281.754 26.2313 276.839 23.8129 275.57 22.9408C272.597 20.8 274.222 18.0248 276.918 17.8663C277.195 17.8663 277.473 17.9059 277.83 17.9455C278.623 18.0645 280.05 18.6591 281.041 21.3153C281.12 21.5136 281.715 23.139 283.578 22.3857C284.411 22.0686 284.569 21.3153 284.569 21.3153C284.807 20.4828 283.657 19.4917 283.538 19.4124C281.636 17.668 279.138 16.6373 276.363 16.6373C270.059 16.6373 266.571 21.1171 269.821 24.8041C271.328 26.5484 277.156 29.7993 278.305 30.7904C281.12 33.2087 279.852 36.0235 277.116 36.182C276.878 36.182 276.561 36.182 276.244 36.1028C275.292 35.9045 273.429 35.3495 272.24 32.614C272.121 32.3762 271.566 30.8697 269.703 31.5436C268.751 31.8608 268.672 32.614 268.672 32.614C268.513 33.843 270.059 34.8738 270.258 35.0324C272.16 36.5785 275.173 37.411 277.671 37.411C283.975 37.411 287.344 32.5744 284.093 28.9271Z" fill="white"/>
<rect x="90.3435" y="7.41302" width="10.3678" height="9.2158" fill="#111111"/>
<rect x="212.453" y="7.41302" width="10.3678" height="9.2158" fill="#111111"/>
<ellipse cx="95.152" cy="10.869" rx="3.45593" ry="3.45593" transform="rotate(90 95.152 10.869)" fill="#30B1B9"/>
<ellipse cx="218.213" cy="10.869" rx="3.45593" ry="3.45593" transform="rotate(90 218.213 10.869)" fill="#D9675D"/>
<circle cx="95" cy="11" r="4" fill="#30B1B9"/>
<circle cx="218" cy="11" r="4" fill="#D9675D"/>
</svg>
